<?xml version="1.0" encoding="UTF-8"?>
<svg version="1.1" viewBox="0 0 1600 1572" width="1280" height="1280" xmlns="http://www.w3.org/2000/svg">
<path transform="translate(794,49)" d="m0 0 4 2 12 29 10 23 19 45 15 35 18 43 17 40 16 38 14 33 16 38 20 47 13 31 18 43 12 28 11 26 3 5 15 8 60 27 36 16 33 15 72 32 40 18 27 12 96 43 35 16 27 12 33 15 19 10 1 3-20 8-24 11-70 32-70 32-68 31-33 15-40 18-37 17-77 35-30 14-16 8-20 45-12 28-13 30-20 46-18 41-12 28-18 41-12 28-17 39-15 35-15 34-12 28-18 40-13 32-5 12-3 1-11-23-13-30-14-33-19-45-18-43-19-45-15-36-15-35-13-31-16-38-19-45-18-43-15-36-7-16-5-6-25-11-82-37-41-18-35-16-65-29-26-12-36-16-89-40-64-29-37-16-9-4v-2l16-8 26-11 20-9 46-20 101-44 44-19 93-40 115-49 40-17 6-5 15-32 13-30 15-35 15-36 49-116 8-19 15-36 11-26 17-41 18-43 11-26 16-38 10-24z" fill="#FDFDFD"/>
<path transform="translate(795,60)" d="m0 0 4 2 8 17 13 30 13 31 16 38 11 26 13 30 13 31 18 43 12 27 11 27 14 33 12 28 15 36 8 20 11 26 10 23 11 27-1 3-77 1-2 1-1 91v210l-2 10-4-1-5-4-7-13-4-5-4-7-14-21-15-22-9-12-12-19-82-123-21-31-28-42-7-11-3-2-124-1-3-2 1-6 9-21 18-40 6-14 16-40 10-23 11-27 7-14 12-31 6-13 10-23 10-25 7-15 11-27 8-18 11-27 6-15 8-18 15-36 5-11 11-28 8-16 4-6z" fill="#5E744D"/>
<path transform="translate(670,690)" d="m0 0 5 2 8 9 13 20 16 24 17 25 16 23 10 15 14 20 10 16 14 20 7 11 22 33 11 17 12 18 13 20 11 16 12 17 10 13 5 3 104 1 8 2 1 1v7l-4 12-5 11-7 16-12 27-9 21-4 9-5 12-9 20-6 14-5 12-7 16-4 9-7 16-7 15-15 36-4 9-9 20-5 11-8 20-4 8-5 13-5 10-5 12-5 10-9 21-4 10-7 14-12 27-9 23-8 15-4 10-3-1-7-17-7-14-4-10-12-28-8-20-10-23-11-25-9-21-10-24-14-33-10-23-15-37-16-38-9-20-11-27-10-24-7-16-10-25-11-25-9-22-6-13 2-2 3-1 72-1 1-104v-209z" fill="#603440"/>
<path transform="translate(561,568)" d="m0 0h4v34l-1 127v151l1 92v23l-3 1-13-4-37-17-81-36-33-15-65-29-26-12-36-16-60-27-4-2v-2l-6-2-57-26-20-9-12-5-11-6-8-3-8-7 1-4 9-6 13-5 20-9 27-12 26-11 40-18 25-11 12-5 29-13 18-8 15-6 21-9 29-13 14-5 9-4 42-19 13-5 21-9 32-14 28-11 21-9 9-3z" fill="#E25B66"/>
<path transform="translate(1039,572)" d="m0 0 5 2 26 12 58 26 34 16 32 14 28 12 25 12 36 16 17 7 15 7 42 19 19 8 36 16 56 25 25 13 2 4-24 13-8 4-7 3-20 9-12 6-10 4-14 7-7 3-20 9-6 1v2l-7 3h-4v2l-24 11-17 7-16 8-13 6-7 3-27 12-24 11-16 8-15 6-7 4-7 3-10 4-10 5-22 10-10 4-12 6-13 6-10 5-7 3-25 11-26 12h-3l-1-2-1-9v-110l1-76v-158l1-55z" fill="#249581"/>
<path transform="translate(795,60)" d="m0 0 4 2 8 17 2 7-4 5-2 3h-2l-2 6-1 6-1 11 1 47v21l1 39v32l1 83-1 30-1 13-2 9v38l-1 92v38l-1 15-3 10-6 2-7 8-6 4-1 3-6 3 1 6 10 25 8 15 6 14 2 8v5l-4-4-10-16-16-23-42-63-7-11-3-2-124-1-3-2 1-6 9-21 18-40 6-14 16-40 10-23 11-27 7-14 12-31 6-13 10-23 10-25 7-15 11-27 8-18 11-27 6-15 8-18 15-36 5-11 11-28 8-16 4-6z" fill="#B7C675"/>
<path transform="translate(555,571)" d="m0 0 5 1 1 93v96l-1 16-14 1h-22l-11 1h-19l-12 1-15-1-22 1h-158l-39-1-95-1h-17l-13-1-7-3-3-3 1-6 1-2-7 1 4-3 50-22 21-9 36-16 11-5 19-8 36-16 20-9 15-6 21-9 29-13 14-5 9-4 42-19 13-5 21-9 32-14 28-11 21-9z" fill="#85493C"/>
<path transform="translate(1370,781)" d="m0 0h24l33 1h20l17 2 10 2 2 3-6 4-3 3-10 4-16 8-12 5-5 3-10 4-14 7-7 3-20 9-6 1v2l-7 3h-4v2l-24 11-17 7-16 8-13 6-7 3-27 12-24 11-16 8-15 6-7 4-7 3-10 4-10 5-22 10-10 4-12 6-13 6-10 5-7 3-25 11-22 10-5-1 1-172h1l1 14v-23l-2-20v-3l4-1h43l142-1h100l41-1z" fill="#2F3D37"/>
<path transform="translate(891,1013)" d="m0 0 5 1 34 1 73 1 4 2-1 7-4 12-10 24-4 13-6 12-5 12-8 20-5 10-5 12-5 11-6 14-5 12-7 16-4 9-7 16-7 15-15 36-4 9-9 20-5 11-8 20-4 8-5 13-5 10-5 12-5 10-9 21-4 10-7 14-12 27-9 23-8 15-4 10-3-1-7-17-7-14v-3l7 1-1-5 3-17v-11l1-17v-51l1-44 1-17v-66l-1-39 1-10 2-19 5-10 6-7 7-12 2-1 3-8 6-10 12-21 6-11 13-22 4-7h2l2-5 4-9 2-5 8-14 8-12z" fill="#865263"/>
<path transform="translate(797,382)" d="m0 0h1l2 18v52l-1 92v14l1-18v-62l1-48v-16l1-24 2-7h1l4 17 2 11v13l2-2 1 2h2l3 5 1 2 5-2 4 6v2l5 1 3 5v2l4 1 2 7 2 4 4 2 8 10 3 7 1 5 4 6 3 1 3 7 4 8 2 6 3 7 6 11 5 10 3 5 7 14 2 6 4 2 6 7 7 1 2 2 1-13 5-5h66l10-1 1-5 2 3 1 4-1 1-77 1-2 1-1 91v210l-2 10-4-1-5-4-7-13-4-5-4-7-14-21-15-22-9-12-12-19-42-63-17-25-3-15-8-18-7-14-9-22-1-6 5-3h2l1-4 9-7 5-6h5l2-10 1-23v-31l1-108v-23z" fill="#676B44"/>
<path transform="translate(763,845)" d="m0 0 5 1 7 6 4 5 2 1v2l4 2 4 7 3 7 2 14-2 26-1 39 1 60 2 67v50l-2 17v10l-2 12-3 6-3 8v8l-3 5-4-1-4 2v-7l-4-1-1-5v-3l-8 3-5-1v-2l-13-2-7-3-10-2v-2h-6l-4-1-20 1-4-2-13 1-5-2-4-1v-2h-2v-3l-3-1-3-5v-3h-2v-3h-2l-5-13-3-8-4-3-2-7-4-4-4-10-2-6-2-1-1-5h-2v-10l-4-8-5-6-1-9-3-9h-2l-3-9-1-5-5-12-1-6h5v-2l15-3h18l31-1 5-2 2-6v-18l3-7 3-11 6-31 2-7 3-1v-6l3-4h2v-3h5l1-4 3-3 3-5 3-4h2l-1-4 5-2 2-5 4-5h2l2-6 5-2 2-5 10-8h2l1-3h2l1-4 2-5 5-9z" fill="#662232"/>
<path transform="translate(697,283)" d="m0 0 1 4-8 20-9 21-4 10-5 12-4 11-2 6-8 16v1l7-2 20-1h18l21 1 57 1 8 3v10l-7 17-8 16-10 18-12 19-8 14-15 25-10 18-5 18v10l-3 5-8 1h-117l-3-2 1-6 9-21 18-40 6-14 16-40 10-23 11-27 7-14 12-31 6-13 10-23z" fill="#D6B85E"/>
<path transform="translate(891,1013)" d="m0 0 5 1 34 1 73 1 4 2-1 7-4 12-10 24-4 13-2 4-5 2v4h-2l-1 5-2 7-2 1-8 18-8 10-2 8-3 15-3 3-3 2-4 7-2 4-5 4h-2l-2 4-5 8-11 9-7-1-8-4-5 1-1-3h-2v-2l-7 2v2h-12l-1-4-5 1h-10l-7-3h-11l-16-4-12-4-1-4-3 1-2-2 4-14 5-8 2-1 3-8 6-10 12-21 6-11 13-22 4-7h2l2-5 4-9 2-5 8-14 8-12z" fill="#705251"/>
<path transform="translate(145,777)" d="m0 0h27l84 1 43 1h9l14 1h13l13 1 6 2 3 9 2 3 1 5 8 9 2 4v3l2 1 3 9 2 1v3l3 3-1 2h2l3 7 7 11 2 4v3l3 1 3 7 4 6v2h2l1 5 5 7 6 12 2 6h2l3 7 3 5v4l-2 1h-7l-14-4-1-2-6-1-3-2-9-3-16-7-11-4-3-3-14-6v-2l-10-3-10-4-6-3-11-5-7-2-6-4-10-3-6-4-6-2-1-3h-8l-7-6-16-6-12-6-5-1-10-5-9-3-5-2v-2l-4-1-5-2-4-2-8-2-4-4-8-4-5-1v-2h-3v-2l-7-1-4-3-7-3-12-6-7-2v-3l-3-1 5-2v-2l7 1v-2l14-1 3-1z" fill="#E2394C"/>
<path transform="translate(916,582)" d="m0 0h5l2 12v59l-1 8-6 7-1 3h-2l-3 9-7 8-5 6-3 3h-2l-2 4-8 8-8 7-3 3h-3v2h-2l-2 4-12 12-7 2-10 3-5-5-22-33-1-3h2l-2-10-3-9-2-33v-45l1-11 2-5 7-1 10-1 38-2 37-1z" fill="#685547"/>
<path transform="translate(782,850)" d="m0 0 4 4 9 13 7 11 20 30 11 17 12 18 13 20 11 16 12 17 10 13 5 3 104 1 8 2 1 1v7l-4 12-5 11-7 16-3 4 1-5 10-24 5-15v-4l-3-1-73-1-34-1-5-2-2 4-7 10-12 20-1 4-6 12-4 4-6 11-10 18-6 10-13 24-5 8-2 5h-2l-2 5-7 11-4 4-3 7-4-1v-17l2-33-1-53v-74l1-13 4-5 4-23-1-17 1-6-1-10 1-11-4-9-1-3-1-7-8-18-4-6-3-7-2-3z" fill="#A53D4E"/>
<path transform="translate(1370,781)" d="m0 0h24l33 1h20l17 2 10 2 2 3-6 4-3 3-10 4-16 8-12 5-5 3-10 4-14 7-7 3-20 9-6 1v2l-7 3h-4v2l-24 11-17 7-16 8-13 6-7 3-18 8-6 2 2-5 3-3-6 3-4-1 1-2-3-1 1-3-7-3 1-7v-4l5-7 3-2 1-4 10-7-1-3 8-6-1-9h-2v-14l1-5-5-1-1-4-2-6-8-3-1-2-19-3-14-1-32-1-46-1h-95l-6-1 4-2h43l142-1h100l41-1z" fill="#1C5144"/>
<path transform="translate(555,571)" d="m0 0 5 1 1 93v96l-1 9h-1l-1-38-2-42-1-53v-15l-1-1-1-14-3-6-5-1h-5l-11 6-3 1v2l-9 1-11 5-17 6-7 1-8 4-10 4-14 7-12 5-20 7-4 3-7 3-11 7-8 4-4 1v2l-8 5-5 2-7 3-5 2-5 3-8 1-9 6-1 3-7 2-9 1h-11l-8 2-2 4-2 1-9 1-14 7-7 5-18 8-5 3-9 3-10 2-17 9-3 3-11 4-20 10v6l11 3 6 1 22 2h17l5 1 24 1 6 1h11l11 1 72 1 99-2h40l16 1 25 1-4 2h-11l-11 1h-19l-12 1-15-1-22 1h-158l-39-1-95-1h-17l-13-1-7-3-3-3 1-6 1-2-7 1 4-3 50-22 21-9 36-16 11-5 19-8 36-16 20-9 15-6 21-9 29-13 14-5 9-4 42-19 13-5 21-9 32-14 28-11 21-9z" fill="#995449"/>
<path transform="translate(785,381)" d="m0 0 9 2 2 2v44l-1 92v38l-1 15-3 10-6 2-7 8-6 4-1 3-6 3 1 6 10 25 8 15 6 14 2 8v5l-4-4-10-16-16-23-42-63-7-11-3-2-7-1v-1l8-1 2-5v-10l5-17 12-22 10-16 11-19 8-13 9-15 10-19 5-11 5-12v-10l-7-2z" fill="#B8B16B"/>
<path transform="translate(1039,572)" d="m0 0 5 2 26 12 58 26-3 1h-3l-3 6-7 6h-2l-2 4-5 13-3 4-3 8-5 9-6 11-8 16-14 26-7 10-13 19-3 5-2 12v13l1 3 27 1h151l138 2h13l-1 2-49 1h-93l-159 1h-29l1 6 2 20v25l-2 1-1 152 2 2-5 1-1-2-1-9v-110l1-76v-158l1-55z" fill="#5A8A6F"/>
<path transform="translate(670,690)" d="m0 0 5 2 8 9 13 20 16 24 17 25 16 23 10 15 14 20 10 16 3 5-4-2-7-10-4-8-3-2-12-2-2 4-3 1-5 5-3 1v2l-4 1-2 4-15 15-6 7-5 4-1 2h-2v2h-2l-2 5-3 3-1 2h-2l-2 4-8 9-3 1-4 4-3-2-2 30-1 79-2 5-2 1h-71v-1l72-1 1-104v-209z" fill="#985147"/>
<path transform="translate(1e3 550)" d="m0 0 2 3 1 4-1 1-77 1-2 1-1 91v210l-2 10-4-1-5-4-7-13-4-5-4-7-14-21-15-22-9-12-12-19-17-25 12-4 7-2 12-12 2-3h2v-2l5-3 7-7 8-7 4-5h2l1-3 12-12 5-11h2l1-5 5-5 1-8 1-92 5-5h66l10-1z" fill="#986A61"/>
<path transform="translate(754,824)" d="m0 0 10 2 4 3 4 8 7 10 3 2 2 7 3 4 3 7 8 16 3 9v5l4 7 1 5-1 9 1 13-1 8 1 14-3 16-1 7-4 3-1 18v69l1 57-1 16h-1v-22h-2l-2-64-1-43-1-56 1-39 2-26-3-17-5-7-2-4-2-1v-2l-4-2v-2l-3-1-7-7-5 1-4 8-4 9-11 9-9 9h-2l-2 6h-2l-2 4-4 6-4 3-1 5-5 4-3 6h-2l-1 4h-5v3l-4 4v8l-4-1-2 13-5 25-3 11-3 7v18l-3 7-5 2-44 1-20 2v2l-4 1 3 9 4 11 1 7 1 4h2l4 10 1 9 7 8 2 5-1 10h2l1 5 3 1 4 11 3 7 3 2 6 20 1 3h2l6 20 4 4v4h2l2 7 5 7 8 20v2l2 1 3 11 1 4h2l1 4 4 10 3 9 6 12 1 9 4 6 5 17 9 20 2 5 1 4h2l2 8 3 8 1 8 3 1 3 6 3 8 5 10 1 9-1 3-12-27-10-24-11-26-9-21-13-31-12-29-15-36-9-20-11-27-10-24-7-16-10-25-11-25-9-22-6-13 2-2 74-1 2-1 1-4 1-82 2-27 2-1 2 2 3-1 1-3 5-3 8-10h2l2-5h2l2-5h2v-2h2l2-4 4-2 2-4 6-6h2l2-4 13-13h2v-2l5-4h2l1-3 4-2z" fill="#6E2E3D"/>
<path transform="translate(984,1078)" d="m0 0v3l-6 15-6 14-4 9-5 12-9 20-6 14-5 12-7 16-4 9-7 16-7 15-15 36-4 9-9 20-2 5-4 1 2-5-6 1-2-5 2-8 1-5-2-2v-3l-2 1v-3l2-2h-6l-3-3-3-6v-2h-6l-4-6-4-5-4-7-6-5-7-9-5-5-3-5-10-19-3-8-3-2-5-14-2-4 1-7h5l1 3 18 6 12 2h10l6 3h15l1 3h9l3 1v-2l7-2v2h2l2 2 4-1 11 5 6-1 10-9 6-10 5-4h2l1-4 6-9 4-1 1-9 4-16 8-10 8-18 3-1 1-7 2-5h2v-4z" fill="#7B555E"/>
<path transform="translate(794,1117)" d="m0 0h2v50l-1 2 3 1-1 10-1 11h-1l-1-5-2 5-1 16-2 9-2-4-1-8-6 1-4 3-4 9h-2l-3 10-4 2-2 4-5 9-4 4-9 15-3 8-3 7h-2v-2l-2 1 1 5-2 3v21h-2v8l-2-1-3-6-6-10h-2l-1 3 3 6-2 1-6-13-5-17-2-2-2-5-1-8-8-16-3-10-3-7 1-2h-2l-4-11v-4l-3-1-1-5-6-13-3-7-4-6v-5h-2l-2-7-3-1-3-10-2-10h-2l-4-8-1-6 4 1 6 17 1 4h2v3h2l4 8 2 1v3h2v2h5l4 2 13-1 6 2 21-1 7 2v2h7l8 3 5 2 10 2v2l8-1 5-1 1 8h5v7l4-2 3 2 2-5v-8l5-12 2-7 1-11v-7l2-16z" fill="#6E2E3D"/>
<path transform="translate(1040,812)" d="m0 0 2 2-1 2 4-2 1 3 2-4h1l1 6h6l1 2-1 3v7l7 10 5 3-2 5 6 2v3l-3 4v6l2 4 4 2-1 5 1 3 5 4 4 7 7 2 3 5 5 5 7 9v5l2 4-2 4-1 11 3 4 18 1-1 2-7 2-3 3-6 5-6 2 1 3 2 1v2l4-2 3 1-22 10-27 12-22 10-5-1 1-172h1l1 14z" fill="#373835"/>
<path transform="translate(292,703)" d="m0 0h8l5 6 2 5h2l4 8 1 3 3 1 2 5 9 13 5 9 4 5v3h2l4 11-1 4h-57l-9-1h-15l-7-1-19-1-11-1h-14l-19-2-12-3-5-2-1-6 19-10 10-4 5-3 8-5 12-6 8-1 9-3 26-13 13-8z" fill="#823C38"/>
<path transform="translate(287,686)" d="m0 0h6l-1 4 6 1 10 4 1 2-8 2-2 4-2 1-9 1-14 7-7 5-18 8-5 3-9 3-10 2-17 9-3 3-11 4-20 10v6l11 3 6 1 22 2h17l5 1 24 1 6 1h11l11 1 72 1 99-2h40l16 1 25 1-4 2h-11l-11 1h-19l-12 1-15-1-22 1h-158l-39-1-95-1h-17l-13-1-7-3-3-3 1-6 1-2-7 1 4-3 50-22 21-9 36-16 11-5 19-8 29-13h7z" fill="#963B3E"/>
<path transform="translate(891,1013)" d="m0 0 5 1 34 1 73 1 4 2-1 7-4 12-10 24-4 13-2 4-5 2v4h-2l-1 5-2 7-2 1-2 4h-3l-2 4h-3v-3h-3l-1 7-6 5h-3l1-6-7-2-3-6-2-10-4-1v-2h-3l-2-7-2-6 2-9-2-5 1-4-3-10v-10l5-5 14-6h7v-2h2l1-3-18 1-20 5h-13l-4-1h-11v-2l-6 4-10 16-4 5 1-4 8-14 8-12z" fill="#6A5554"/>
<path transform="translate(798,65)" d="m0 0 3 1 8 18-2 5-4 5h-2l-2 6-1 6-1 11 1 47v21l1 39v32l1 83-1 30-1 13-3 3-3-2-7-2-1-10 1-21v-7l-1-3-2-28-3-15v-16l1-7 1-12 1-6v-16l1-6-1-21-2-8-2-9-2-5v-7l1-5-2-2-1-9 1-5v-7l3-5 3-19 1-13 5-23 2-9 3-9 2-5h2l1-5z" fill="#AAB975"/>
<path transform="translate(917,591)" d="m0 0h4v30l1 12v13l-1 5-3 3h-2l-2 4-7 8-4 2-2 4-8 7-15 14-3 3h-2l-2 4-5 4-2 3h-2v2l-9 6h-2l-2 4-5 6-7 1-3-4-1-8 3-7 6-10 3-8 6-18h2l2-10 6-15 9-13 4-6h2l1-3 8-6 4-6 9-9h2l2-4 5-5z" fill="#5B4B40"/>
<path transform="translate(670,690)" d="m0 0 5 2 5 5-1 2-4-2-1 10-1 24v53l2 2 6 1 4 4h14l7 4v2l5 1 2 3-1 4-5 10-6 8 3 3v2h8l-2 4v3 1h3l1 5h3l-2 5 2 1-2 2-1 5h-2l-1 4-4 1-2 5-1 2h-2l-1 4h-2l-2 5-3 4h-2l-2 5-8 12-5 5-3-2-2 30-1 79-2 5-2 1h-71v-1l72-1 1-104v-209z" fill="#E15864"/>
<path transform="translate(904,769)" d="m0 0 10 1 1 3 4 2 3 11 1 12-1 62-2 6-3-1v-2h-3l-5-10-4-5-4-7-14-21-15-22-6-8 2-5-1-2 5-9 3-2 15-1z" fill="#613540"/>
<path transform="translate(797,382)" d="m0 0h1l2 18v52l-1 92v124l3 18 3 8h-3l-10-15-3-15-8-18-7-14-9-22-1-6 5-3h2l1-4 9-7 5-6h5l2-10 1-23v-31l1-108v-23z" fill="#986A61"/>
<path transform="translate(674,898)" d="m0 0 2 2v29l-1 60v15l-1 9-4 3-6 1-32 1h-10l-14 2v2l-4 1 3 9 4 11 1 7 1 4h2l4 10 1 9 7 8 2 5-1 10h2l1 5 3 1 4 11 3 7 3 2 6 20 1 3h2l6 20 4 4v4h2l2 7 5 7 8 20v2l2 1 3 11 1 4h2l1 4 4 10 3 9 6 12 1 9 4 6 5 17 9 20 2 5 1 4h2l2 8 3 8 1 8 3 1 3 6 3 8 5 10 1 9-1 3-12-27-10-24-11-26-9-21-13-31-12-29-15-36-9-20-11-27-10-24-7-16-10-25-11-25-9-22-6-13 2-2 74-1 2-1 1-4 1-82 2-27z" fill="#A84853"/>
<path transform="translate(1040,812)" d="m0 0 2 2 1 13 3 21v15l1 28 2 22 1 10v23l1 16 1 1h9l10-4 13-2 10-2 3-2h6l1 3 2 1v2l4-2 3 1-22 10-27 12-22 10-5-1 1-172h1l1 14z" fill="#5B4B40"/>
<path transform="translate(687,715)" d="m0 0h5l20 30 17 25v5l-23 2h-23l-6-2-1-1-1-7v-28l2-19 9-4z" fill="#854B3D"/>
<path transform="translate(1039,572)" d="m0 0 5 2 26 12 29 13 4 3-5-1-16-7-12-2-5-2-11-2-7 1-5 5-1 9v24l-1 46-2 44-1 66 2 6 2 22v25l-2 1-1 152 2 2-5 1-1-2-1-9v-110l1-76v-158l1-55z" fill="#ADB876"/>
<path transform="translate(754,824)" d="m0 0 10 2 4 3 4 8 7 10 3 2 1 5-6-5-5-5v-2l-6-2v-2l-4-2h-3l-10 8-10 7-4 4h-2v3l-5 4-1 2h-3v3l-8 7-3 1-2 4-3 3h-2l-1 3-5 5-9 8h-2l-2 5-3 8-1 12v11l-1 6v10l-1 2v11l-1 11-2 15-2 20-2 3v-35l1-48v-24l2-5 3-1 1-3 5-3 8-10h2l2-5h2l2-5h2v-2h2l2-4 4-2 2-4 6-6h2l2-4 13-13h2v-2l5-4h2l1-3 4-2z" fill="#823C38"/>
<path transform="translate(727,578)" d="m0 0 7 6h52l-6 8-8 6-1 3-6 3 1 6 10 25 8 15 6 14 2 8v5l-4-4-10-16-16-23-14-21-21-31z" fill="#BDB88F"/>
<path transform="translate(851,1371)" d="m0 0 4 1-1 8-10 23-4 10-7 14-12 27-3 1-1 2h-2l-4 16-5 7h-1l1-7 1-4-1-4 3-17 3-11 1-2 2-17 1-6 1-8 4-5 4-4 1-3 6-4 4-2 2-5 9-8z" fill="#7C565E"/>
<path transform="translate(921,591)" d="m0 0 2 3v59l-1 8-6 7-1 3h-2l-3 9-7 8-5 6-3 3h-2l-2 4-8 8-8 7-3 3h-3v2h-2l-2 4-12 12-7 2-10 3-3-3h2v-2l7-6 5-5 3-1 2-4 5-5 8-7-3-1 6-7 10-9 9-9 8-7 3-1 1-3 8-7 8-9 1-2h2l1-3h2v-18l-1-12v-18z" fill="#68554B"/>
<path transform="translate(498,591)" d="m0 0m-2 1h2v2l-13 6-29 13-28 11-22 10-13 6-9 4-21 8-35 16-23 9-20 9-36 16-19 8-31 14-34 15-21 9-43 19-10 4-5 4 1 4 8 6 10 4 12 6 9 4 20 9 35 16 26 12-3 1-86-39-37-16-9-4v-2l16-8 26-11 20-9 46-20 101-44 44-19 93-40 33-14z" fill="#FEFEFE"/>
<path transform="translate(155,742)" d="m0 0h2l-2 4h-2l-1 3-9 3h-5v4h-2v2l-5 3-2 3 1 5 6 3 13 2 10 1 130 2h56l14-1 99-2h40l16 1 25 1-4 2h-11l-11 1h-19l-12 1-15-1-22 1h-158l-39-1-95-1h-17l-13-1-7-3-3-3 1-6 1-2-7 1 4-3 25-11z" fill="#A53D4E"/>
<path transform="translate(898,601)" d="m0 0h2v2l-8 7-5 6-5 5-5 4-4 5-9 13-6 12-5 16h-2l-3 13-4 12-6 9-3 5-1 8 3 7 7-1 7-9 7-5 3 1-15 14-1 2h-2v2h-2v2l-7 1-2-2-1-6-3-9-2-15 2-8 4-3 5-11 5-15 2-11 2 1 4-8 2-1 3-7 1-2h2l2-5 12-11 2 1-3 4h-2v2l12-9 3-3 5-4 7-8z" fill="#695553"/>
<path transform="translate(1036,775)" d="m0 0 4 1v2l27 1h151l138 2h13l-1 2-49 1h-93l-159 1h-29l-2-2z" fill="#5E744D"/>
<path transform="translate(1e3 550)" d="m0 0 2 3 1 4-1 1-77 1-2 1-1 91v210l-2 10-4-1-5-4-1-3h2l3 4h2l1-11v-74l-1-16v-75l2-55-1-46v-29l5-5h66l10-1z" fill="#C3B783"/>
<path transform="translate(904,769)" d="m0 0 10 1 1 3 4 2 3 11 1 12-1 62-2 6-3-1 2-9 1-66-19 1-15 1-3 1-1 2h-2v2h-2l-2-3-8-1-2-5 2-3-1-2 5-9 3-2 15-1z" fill="#705452"/>
<path transform="translate(561,568)" d="m0 0h4v34l-1 127v151l1 92v23l-3 1-13-4-6-3 3-1 8 3h7l1-1-1-41v-188l-2-189v-3z" fill="#C4B782"/>
<path transform="translate(817,586)" d="m0 0h19l1 4-10 5-6 5-5 5-2 6-2 14-1 14-1 7v6l-1 1-1 16 3 15 5 11 3 8 7 14v2h-2l1 4-2 2-15-22v-2h2l-2-10-3-9-2-33v-45l1-11 2-5 7-1z" fill="#6A5554"/>
<path transform="translate(792,872)" d="m0 0 3 4 6 14v7l4 7 1 5-1 9 1 13-1 8 1 14-3 16-1 7-4 3-1 18v69l1 57-1 16h-1l-1-23v-34l-1-85-1-34v-52l1-12v-17z" fill="#963A3E"/>
<path transform="translate(786,856)" d="m0 0 5 5 9 14 22 33 11 17 12 18 13 20 11 16 12 17 10 13 5 3 104 1 8 2 1 1v7l-4 12-5 11-7 16-3 4 1-5 10-24 5-15v-4l-3-1-73-1-34-1-6-1-4-1-4-4-5-9v-2h-2v-3h-2v-3l-3-1-2-4-2-6-2-4-3-1-2-5-12-18-9-13-16-24-7-11-6-8-3-3v-2h-2v-3l-3-1-8-18-7-12z" fill="#DE6B66"/>
<path transform="translate(795,1191)" d="m0 0h1l1 33v12l1 12v55l-1 41-1 12h2l1 12-1 4 1 27 1 23-1 5 2 6-1 17-3 15-2 13 1 7-5 1-8-16v-3l7 1-1-5 3-17v-11l1-17v-51l1-44 1-17v-66l-1-39z" fill="#705352"/>
<path transform="translate(1036,783)" d="m0 0 2 1 1 7 2 20v25l-2 1-1 152 2 2-5 1-1-2-1-9v-110l1-76z" fill="#895F5F"/>
<path transform="translate(555,571)" d="m0 0 5 1 1 93v96l-1 9h-1l-1-38-2-42-1-53v-39l-2-9-5-2h-17l2-2 14-6 6-2v-2l-12 2v2l-9 4-3-1 4-3 17-7z" fill="#966761"/>
<path transform="translate(1040,838)" d="m0 0h1l1 49 2 38v48l4 12h2l1-6 7-5 17-5h2v-2l12-5 8 2v-2l-2-1h2l1-3 5-1 2 2 5-2 3 1-22 10-27 12-22 10-5-1 1-149h1l1 77z" fill="#695553"/>
<path transform="translate(670,690)" d="m0 0 5 2 5 5-1 2-4-2-1 10-1 24-1 104v94l-1 79-2 5-2 1h-71v-1l72-1 1-104v-209z" fill="#C4B882"/>
<path transform="translate(1420,816)" d="m0 0 3 1-3 3-28 13-70 32-68 31-33 15-40 18-37 17-42 19-9 4-2-1 1-2 10-4 14-7 11-5 10-5 13-5 17-8 8-4 8-3 9-4 7-4 13-5 12-6 19-9 10-5 10-4 10-5 8-3 11-5 18-8 9-5 13-5 19-9 5-1v-2l11-3v-2l20-8 9-5 13-5z" fill="#F9F9F5"/>
<path transform="translate(769,1368)" d="m0 0 9 2 3 6 2-2 1 2 1 15 1 10-2 6-2 4-1 4h-2v-2l-3-1-1-4-4-2-3-5v-2l-3-1-4-11-3-5-1-8 2 1 1-2 3 1v2l8 1-1-6-2-2z" fill="#695453"/>
<path transform="translate(1007,1030)" d="m0 0 1 2-19 44-13 30-20 46-18 41-12 28-18 41-12 28-17 39-9 21h-2l3-10 4-10 4-8 5-13 5-11 9-20 4-9 15-36 7-15 7-16 5-12 6-13 5-12 10-23 5-11 10-24 12-27 5-11 9-20 5-12z" fill="#FEFEFE"/>
<path transform="translate(891,1013)" d="m0 0 5 1 34 1 73 1-3 2-7 1-42 1-13 1-20 5h-13l-4-1h-11v-2l-6 4-10 16-4 5 1-4 8-14 8-12z" fill="#79555D"/>
<path transform="translate(754,824)" d="m0 0 10 2 4 3 3 6-1 2-6-4v-2l-7-2-7 6-8 7-6 4-1 2h-2v2l-5 5h-2l-2 4-9 9h-2l-2 4-4 4h-2l-2 4-11 11h-2l-2 4h-2l-2 4-2 3h-2l-2 13-1 55v32l-2 10h-1v-35l1-48v-24l2-5 3-1 1-3 5-3 8-10h2l2-5h2l2-5h2v-2h2l2-4 4-2 2-4 6-6h2l2-4 13-13h2v-2l5-4h2l1-3 4-2z" fill="#963A3E"/>
<path transform="translate(784,74)" d="m0 0 1 3-9 21-8 20-11 25-8 19-7 16-6 16-10 24-5 11-10 24-9 21-10 23-5 13-11 25-11 27-9 21-3 3 1-5 13-31 19-45 8-19 15-36 11-26 17-41 18-43 11-26 16-38z" fill="#FEFEFE"/>
<path transform="translate(921,656)" d="m0 0h1v5l-6 7-1 3h-2l-3 9-7 8-5 6-3 3h-2l-2 4-8 8-8 7-3 3h-3v2h-2l-2 4-12 12-7 2-7 1 4-4 7-5 7-8 4-5h2l2-4 9-8h2l2-4 5-5h2l2-4 5-5 5-3 5-6h3v-3l5-5 3-5h2l2-4z" fill="#7A545E"/>
<path transform="translate(699,742)" d="m0 0 1 2 3-2h4l4 5 4 2 4 7-5 2-2 5-5 3-3 3-6-1v2l-4-2v2h-5l-5-4v-4h2l1-8 5-6h2v-2z" fill="#6B5453"/>
<path transform="translate(749,820)" d="m0 0 6 1 8 3 1-3 18 27h-3l-4-5-7-11-1-3-3-2-12-2-2 4-3 1-5 5-3 1v2l-4 1-2 4-15 15-6 7-5 4-1 2h-2v2h-2l-2 5-3 3-1 2h-2l-2 4-8 9-2-1 10-16h2l2-4 3-5h2l1-4h2l2-5 3-3h2l1-4h3l2-5 5-4h2v-2h2v-2l6-5h2v-2h2v-3h3l1-3 4-2z" fill="#A63E4F"/>
<path transform="translate(904,769)" d="m0 0 10 1 1 3 4 2 3 11 1 12-1 62-2 6-3-1 2-9 1-69-2-6-6-2h-31l-8 1-2 4-4-1 5-9 3-2 15-1z" fill="#7A535E"/>
<path transform="translate(562,740)" d="m0 0h1l1 140 1 92v23l-3 1-13-4-6-3 3-1 8 3h7l1-1-1-41v-108z" fill="#D7B961"/>
<path transform="translate(674,898)" d="m0 0 2 2v29l-1 60v15l-1 9-4 3h-25l-39-1v-1l61-1 2-1 1-4 1-82 2-27z" fill="#986A61"/>
<path transform="translate(155,742)" d="m0 0h2l-2 4h-2l-1 3-9 3h-5v4h-2v2l-5 3-2 3 1 5 6 3 13 2 6 1 1 3h-20l-13-1-7-3-3-3 1-6 1-2-7 1 4-3 25-11z" fill="#A54251"/>
<path transform="translate(901,638)" d="m0 0h5l3 6-1 9-5 8-5 4-10 4h-6l-2-2 3-9 3-5 4-6 3-1 2-4z" fill="#6A5554"/>
<path transform="translate(797,1356)" d="m0 0h1l1 12-1 4 1 27 1 23-1 5 2 6-1 17-3 15-2 13 1 7-5 1-8-16v-3h7l3-12 1-11 2-15v-12l-1-10v-20l1-30z" fill="#78525C"/>
<path transform="translate(792,872)" d="m0 0 3 4 2 9v181l1 57-1 16h-1l-1-23v-34l-1-85-1-34v-52l1-12v-17z" fill="#823B38"/>
<path transform="translate(674,696)" d="m0 0 8 4 9 13v2l-7 3-6 2-2 19-1 37-1 10-2-2v-53l1-24z" fill="#986B61"/>
<path transform="translate(450,774)" d="m0 0h48l16 1 25 1-4 2h-11l-11 1h-19l-12 1-15-1-22 1h-34l-12-1v-1l62-1h-30l-73 1 1-2z" fill="#994C48"/>
<path transform="translate(670,690)" d="m0 0 5 2 5 5-1 2-4-2-1 10-1 24-1 104h-1l-2-46v-90z" fill="#C0B88A"/>
<path transform="translate(889,1008)" d="m0 0 7 4 104 1 8 2 1 1v7l-4 12-5 11-7 16-3 4 1-5 10-24 5-15v-4l-3-1-73-1-34-1-5-3z" fill="#B8B888"/>
<path transform="translate(1e3 550)" d="m0 0 2 3 1 4-1 1-77 1-2 1-1 54-1 22h-1l-1-10-1-36v-29l5-5h66l10-1z" fill="#B2B881"/>
<path transform="translate(1034,795)" d="m0 0h1l1 114 1 75 1 5 2 2-5 1-1-2-1-9v-110z" fill="#BCB87D"/>
<path transform="translate(708,1285)" d="m0 0 3 3 5 13 5 11 2 5 1 4h2l2 8 3 8 1 8 3 1 3 6 3 8 5 10 1 9-1 3-12-27-10-24-11-26-6-15z" fill="#7B5B58"/>
<path transform="translate(1039,572)" d="m0 0 5 2-3 1-3 11-1 113-1 34h-1l-1-63v-33l1-55z" fill="#BFB88B"/>
<path transform="translate(1101,957)" d="m0 0 4 2 5-2 3 1-22 10-27 12-16 7v-2h2l1-6 7-5 17-5h2v-2l12-5 8 2v-2l-2-1h2l1-3z" fill="#725D57"/>
<path transform="translate(652,386)" d="m0 0 1 3-14 34-5 11-16 40-7 16-11 24-8 18-5 12h-2l1-5 8-17 13-30 15-35 15-36 11-26z" fill="#FEFEFE"/>
<path transform="translate(907,784)" d="m0 0 10 1 3 3v2l-19 1-15 1-3 1-1 2h-2v2h-2l-2-3-7-2 1-3 5-2 4-2h23z" fill="#6A5453"/>
<path transform="translate(984,1078)" d="m0 0v3l-6 15-6 14-4 9-5 12-9 20h-1v-10l4-16 8-10 8-18 3-1 1-7 2-5h2v-4z" fill="#845F61"/>
<path transform="translate(1420,816)" d="m0 0 3 1-3 3-28 13-70 32-3-1 7-5 10-4 18-8h2v-2l11-3v-2l20-8 9-5 13-5z" fill="#FBFBF8"/>
<path transform="translate(889,688)" d="m0 0 3 1-7 8-8 7-5 5-8 7-1 2h-2l-2 4-7 7-4 5-8 5-3 3-4-2 2-1v-2l7-6 5-5 5-1 2-4 10-9 8-8 8-7 5-5z" fill="#6E594F"/>
<path transform="translate(398,923)" d="m0 0 5 1 29 13 12 5 9 2 14 7 19 9v2l9 2 8 4v2l-5-1-42-19-41-18-17-8z" fill="#F2E9CE"/>
<path transform="translate(736,782)" d="m0 0 5 5 14 21 8 11v2l-8-2-4-4-3-2v-2h-2l-6-18-4-8z" fill="#DE6B66"/>
<path transform="translate(1172,930)" d="m0 0m-2 1h2v2l-30 14-40 18-9 4-2-1 1-2 10-4 14-7 11-5 10-5 13-5 17-8z" fill="#F9F9F6"/>
<path transform="translate(794,994)" d="m0 0 3 1v71l1 57-1 16h-1l-1-23v-34z" fill="#863B39"/>
<path transform="translate(797,1356)" d="m0 0h1l1 12-1 4 1 27 1 23-2 5-2-1v-9l-1-10v-20l1-30z" fill="#7A545E"/>
<path transform="translate(920,786)" d="m0 0h2l1 12-1 62-2 6-3-1 2-9z" fill="#755359"/>
<path transform="translate(674,978)" d="m0 0h1v26l-1 9-4 3h-25l-39-1v-1l64-1 2-7 1-23z" fill="#8E5B62"/>
<path transform="translate(733,808)" d="m0 0 3 1v3l3 1-1 4 2 1-2 4v4l-6 2-1-2 1-2-3-1 5-5-6 3-1-2h-3l1-4 5-3h3z" fill="#DD5863"/>
<path transform="translate(1034,922)" d="m0 0h1v62h2l1 5 2 2-5 1-1-2-1-9v-58z" fill="#BDB890"/>
<path transform="translate(1039,923)" d="m0 0h2l1 7-1 12 1 35 3 9h-2l-2-3v-3h-2l-1-38v-17z" fill="#604F43"/>
<path transform="translate(851,1380)" d="m0 0h2l-3 10-6 13-4 10-2-3-1-6 4-10 3-5 4-4z" fill="#A47E68"/>
<path transform="translate(278,688)" d="m0 0 3 1v3l-9 5-9 4-10 3-4-2 3-2z" fill="#A95253"/>
<path transform="translate(676,933)" d="m0 0h1v69l-2 10h-1v-35l1-43z" fill="#963A3E"/>
<path transform="translate(921,591)" d="m0 0 2 3v59l-2 2-1-2-2 1 1-3h2v-18l-1-12v-18z" fill="#6D5752"/>
<path transform="translate(808,896)" d="m0 0 5 5 7 10 7 11 10 15 2 5-3-2v-2h-2v-3l-3-1-2-3v-4h-2l-6-8-2-4-2-1-2-5h-2l-3-8-2-2z" fill="#975147"/>
<path transform="translate(708,1285)" d="m0 0 3 3 5 13 5 11 1 9-1 3-14-34z" fill="#8F6067"/>
<path transform="translate(1037,784)" d="m0 0 2 4 2 23v25l-4 2z" fill="#695450"/>
<path transform="translate(891,1013)" d="m0 0 5 1 81 2v1h-75l-11-1z" fill="#986A61"/>
<path transform="translate(818,1454)" d="m0 0h2l-3 10-5 13-7 13-2-2v-4h2l1-7h2l1-3 2-5 3-10 1-2h2z" fill="#A17A68"/>
<path transform="translate(984,1078)" d="m0 0v3l-6 15-6 14-4 9-5 12-3 7h-1v-5h2l2-9 6-13 3-7 1-7 3-1 1-7 2-5h2v-4z" fill="#AF9B79"/>
<path transform="translate(674,898)" d="m0 0 2 2v29l-1 48h-1l-1-78z" fill="#8F5255"/>
<path transform="translate(913,791)" d="m0 0h6l-1 5h-20l-7 1-4 4-1-6 3-2 15-1z" fill="#6A5554"/>
<path transform="translate(893,682)" d="m0 0v3l-9 9h-2l-2 4-17 16-4 2-2 4-5 5h-2l2-4 5-5 8-7 25-25z" fill="#6A5453"/>
<path transform="translate(891,680)" d="m0 0 2 1-11 12-14 14-5 2-1-2 5-5 5-4 15-15z" fill="#69554D"/>
<path transform="translate(1e3 550)" d="m0 0 2 3 1 4-1 1-77 1-4 2 1-3 2-1 65-1 10-1z" fill="#B9B88B"/>
<path transform="translate(912,789)" d="m0 0h4v2l-9 2h-9l-9 1-7 7-3-4 1-2h2l1-3 3-1z" fill="#5B493F"/>
<path transform="translate(810,697)" d="m0 0 4 2 2 9h2l3 5 2 7-3 1-12-18v-2h2z" fill="#7A5E58"/>
<path transform="translate(737,1352)" d="m0 0 2 4 3 5 3 7 2 9v5l-3-4-10-24z" fill="#7D5F59"/>
<path transform="translate(1007,1018)" d="m0 0 2 2-2 10-14 32-3 4 1-5 10-24 5-15z" fill="#BAB882"/>
<path transform="translate(101,766)" d="m0 0h3l1 6-3 3-5 1-4-1v-2h-2v-3z" fill="#A84A53"/>
<path transform="translate(475,777)" d="m0 0h49v1l-11 1h-19l-12 1-8-1z" fill="#975147"/>
<path transform="translate(1420,816)" d="m0 0 3 1-3 3-28 13-3-1 7-5 13-5z" fill="#F9F8F2"/>
<path transform="translate(1041,784)" d="m0 0h42l1 2-7 1h-33l-6-1z" fill="#1A5044"/>
<path transform="translate(910,668)" d="m0 0 1 3-4 5h-2v3l-4 2v2l-6 5h-5l1-3 8-7 3-3h3v-2l3-3h2z" fill="#6C5D4C"/>
<path transform="translate(873,1330)" d="m0 0h2l-3 10-4 10-5 10-2 3 1-8 5-12 3-8z" fill="#A98569"/>
<path transform="translate(710,557)" d="m0 0h4v2l4 2 11 16-1 2h-3l-12-19z" fill="#C2BF73"/>
<path transform="translate(916,851)" d="m0 0h3v10l-1 2h-4l-4-8v-2l4-1z" fill="#743E46"/>
<path transform="translate(559,770)" d="m0 0h1v7l-14 1-7-1-25-1v-1h42l2 1z" fill="#964843"/>
<path transform="translate(265,694)" d="m0 0 4 1-3 2-2 3-7 3-4 1-4-2 3-2z" fill="#A95654"/>
<path transform="translate(890,1015)" d="m0 0 2 2-2 3h-2l-2 4-11 17-4 7-1-3 14-23z" fill="#85505B"/>
<path transform="translate(1448,804)" d="m0 0m-3 1h3v2l-23 11-3-1 9-6z" fill="#FBFAF9"/>
<path transform="translate(155,742)" d="m0 0h2l-2 4h-2l-1 3-9 3-6-1 2-2z" fill="#A8625B"/>
<path transform="translate(239,705)" d="m0 0 3 1-3 3-1 3-7 1h-2l-5 2-1-3z" fill="#AC4C54"/>
<path transform="translate(1038,942)" d="m0 0h1v38h2l2 6-4-2-1 3h-1z" fill="#685950"/>
<path transform="translate(893,1281)" d="m0 0h4l-2 6-5 11-1-4-2-3 3-5z" fill="#956E6C"/>
<path transform="translate(1039,923)" d="m0 0h2l1 7-1 11-3 1v-17z" fill="#64514C"/>
<path transform="translate(913,662)" d="m0 0 1 3-2 3h-2v2h-2l-1 3h-2v2l-5 3-4 4-2-1 16-16z" fill="#6C5552"/>
<path transform="translate(1227,905)" d="m0 0m-3 1h3v2l-22 10-2-1 4-3z" fill="#FAFAF8"/>
<path transform="translate(811,1473)" d="m0 0 1 4-7 13-2-2v-4h2l1-7h2l1-3z" fill="#A07765"/>
<path transform="translate(1116,955)" d="m0 0 2 1-3 3-22 10-2-1 1-2 10-4z" fill="#F9F8F5"/>
<path transform="translate(782,850)" d="m0 0 4 4 3 7 7 13v2h-2l-7-12-3-7-2-3z" fill="#A24D51"/>
<path transform="translate(204,721)" d="m0 0 2 1-5 5h-2v2l-8 1-1-3z" fill="#A95E5C"/>
<path transform="translate(783,1467)" d="m0 0h8v6l-4 4-2-2-2-5z" fill="#785B56"/>
<path transform="translate(550,572)" d="m0 0h5l-2 2-12 3v2l-9 4-3-1 4-3z" fill="#B6A17A"/>
<path transform="translate(1101,957)" d="m0 0 4 2 5-2 3 1-11 5-5 1v-2l-2-1h2l1-3z" fill="#76625A"/>
<path transform="translate(1172,930)" d="m0 0m-2 1h2v2l-20 9-2-1 8-5z" fill="#FEFEFE"/>
<path transform="translate(767,827)" d="m0 0 3 3 12 18h-3l-4-5-7-11z" fill="#9D756A"/>
<path transform="translate(869,792)" d="m0 0 7 1 4 6h-4l-2 2-5-7z" fill="#6F3743"/>
<path transform="translate(1e3 1022)" d="m0 0 3 1-3 12-3 4v-8z" fill="#835C5E"/>
<path transform="translate(685,712)" d="m0 0 5 2-4 3-7 3h-2l2-4z" fill="#865264"/>
<path transform="translate(483,961)" d="m0 0 10 2 10 5v2l-5-1-15-7z" fill="#EADAAC"/>
<path transform="translate(89,774)" d="m0 0h3v3l5 1 4 3h-7l-5-2-1-4z" fill="#E3394C"/>
<path transform="translate(468,952)" d="m0 0 6 2 12 6v1h-6l-12-7z" fill="#DBC072"/>
<path transform="translate(795,1169)" d="m0 0 3 1-1 10-1 11h-1l-1-8z" fill="#84493B"/>
<path transform="translate(637,1108)" d="m0 0 2 1 5 11-1 2-4-4-2-6z" fill="#6E2E3E"/>
<path transform="translate(912,789)" d="m0 0h4v2l-9 2h-8l-1-2 5-1z" fill="#5B4B40"/>
<path transform="translate(1420,816)" d="m0 0 3 1-3 3-8 4-3-1 9-6z" fill="#F2EEE0"/>
<path transform="translate(85,775)" d="m0 0 7 6 12 6-3 1-8-3-8-7z" fill="#D7B85E"/>
<path transform="translate(920,654)" d="m0 0 2 2-7 10-2-1 1-5z" fill="#695C4E"/>
<path transform="translate(370,648)" d="m0 0 3 1-9 5-5 2h-5l2-2z" fill="#CE8970"/>
<path transform="translate(721,569)" d="m0 0 4 2 4 6-1 2h-3l-4-6z" fill="#C2BE76"/>
<path transform="translate(868,1047)" d="m0 0 2 3-7 13-1-3 4-10z" fill="#8C423C"/>
<path transform="translate(676,992)" d="m0 0h1v10l-2 10h-1v-11l1-8z" fill="#8C3B3C"/>
<path transform="translate(1039,984)" d="m0 0 6 2 2 2-5 2-5-1z" fill="#7F675B"/>
<path transform="translate(145,777)" d="m0 0h23l2 2-23 1z" fill="#E25965"/>
<path transform="translate(462,776)" d="m0 0h16l-3 2-7 1-6-1z" fill="#A1424C"/>
<path transform="translate(492,596)" d="m0 0 2 1-3 3-4 2-11 2 4-3z" fill="#C9856D"/>
<path transform="translate(1319,862)" d="m0 0 2 1-4 4-6 3-3-1 5-4z" fill="#F1EFE3"/>
<path transform="translate(670,690)" d="m0 0 5 2 5 5-1 2-6-2-3-4z" fill="#C9B878"/>
<path transform="translate(783,856)" d="m0 0 4 4 3 7 2 5h-2l-5-7z" fill="#7D343C"/>
<path transform="translate(1483,785)" d="m0 0 2 1-10 6-6 2 4-4 4-3z" fill="#86835D"/>
<path transform="translate(910,668)" d="m0 0 1 3-4 5h-2v3l-5 2 3-6h2v-2l3-3h2z" fill="#676B44"/>
<path transform="translate(797,63)" d="m0 0 3 1-2 4-2 5h-2l-1 4h-2l1-4 3-4z" fill="#BDB891"/>
<path transform="translate(1249,893)" d="m0 0 3 1-13 6-3-1 4-4 7-1z" fill="#686F57"/>
<path transform="translate(155,742)" d="m0 0h2l-2 4h-2l-1 3-5 1-1-2 5-1v-3z" fill="#AB5755"/>
<path transform="translate(233,708)" d="m0 0h2l-1 3-10 4-1-3z" fill="#AE6359"/>
<path transform="translate(868,1345)" d="m0 0 1 3-6 12-2 3 1-8 3-5z" fill="#B29672"/>
<path transform="translate(972,1100)" d="m0 0 1 4-5 12-2-3z" fill="#855C5F"/>
<path transform="translate(998,1039)" d="m0 0 2 2-6 16-2-2 3-8z" fill="#825D5D"/>
<path transform="translate(961,1102)" d="m0 0h3l-1 8-3 1-1-4z" fill="#6D5352"/>
<path transform="translate(1308,868)" d="m0 0m-2 1h2v2l-11 5-2-1 8-5z" fill="#FEFEFE"/>
<path transform="translate(1034,984)" d="m0 0h3l1 5 2 2-5 1-1-2z" fill="#B6B887"/>
<path transform="translate(1067,978)" d="m0 0m-3 1h3v2l-8 4-3-1 5-4z" fill="#FBFBF9"/>
<path transform="translate(1183,925)" d="m0 0m-2 1h2v2l-8 4-3-1 3-3z" fill="#F9F8F5"/>
<path transform="translate(905,670)" d="m0 0 1 2-1 3-5 3-4 4-2-1z" fill="#6A5453"/>
</svg>
